# xmcd CD database file
#
# Track frame offsets:
#	150
#	26691
#	45380
#	63489
#	111208
#	128857
#	150954
#	172003
#	207999
#	224881
#	236890
#	263971
#	306630
#	324959
#
# Disc length: 4733 seconds
#
# Revision: 0
# Processed by: cddbd v1.5.2PL0 Copyright (c) Steve Scherf et al.
# Submitted via: CDex 1.79
#
DISCID=d3127b0e
DTITLE=Alligator Records 30th Anniversary Vol 2 - Alligator Records 30th Anniversary Vol 2
DYEAR=1900
DGENRE=Blues
TTITLE0=Two Headed Man_Lonnie Brooks
TTITLE1=Soul Fixin' Man_Luther Allison
TTITLE2=Jumbalaya_C.J.Chenier and The Red Hot Louisiana Band
TTITLE3=Dyin' Flu_Albert Collins and The Icebreakers
TTITLE4=When It Rains It Pours_James Cotton
TTITLE5=Slow Down_Elvin Bishop
TTITLE6=You Can Have My Husband_Saffire
TTITLE7=I'll Take You Back_Little Charlie and The Nightcats
TTITLE8=Maybe Someday Baby_Delbert McClinton
TTITLE9=Chicken, Gravy nad Biscuits_Lil' Ed and The Blues Imperials
TTITLE10=Sadie_Son Seals and Elvin Bishop
TTITLE11=Stop_Lonnie Mack
TTITLE12=It's Alright_Hound Dog Taylor and The Houserockers
TTITLE13=Taylor's Rock_Hound Dog Taylor and The Houserockers
EXTD=
EXTT0=
EXTT1=
EXTT2=
EXTT3=
EXTT4=
EXTT5=
EXTT6=
EXTT7=
EXTT8=
EXTT9=
EXTT10=
EXTT11=
EXTT12=
EXTT13=
PLAYORDER=
